<svg width="39" height="42" viewBox="0 0 39 42" fill="none" xmlns="http://www.w3.org/2000/svg">
<path d="M0 38.8396V2.54158C0.000243177 2.46283 0.0237312 2.38591 0.0675189 2.32045C0.111307 2.25499 0.173445 2.20392 0.246141 2.17364C0.318838 2.14336 0.398857 2.13521 0.476164 2.15023C0.553471 2.16524 0.624625 2.20274 0.680703 2.25803L19.5806 20.6897L0.680703 39.1232C0.624625 39.1785 0.553471 39.216 0.476164 39.231C0.398857 39.246 0.318838 39.2378 0.246141 39.2076C0.173445 39.1773 0.111307 39.1262 0.0675189 39.0607C0.0237312 38.9953 0.000243177 38.9184 0 38.8396ZM27.5052 28.2633L3.80714 41.3195L3.79236 41.3278C3.38412 41.5495 2.9962 40.9972 3.33055 40.6758L21.9072 22.9128L27.5052 28.2633ZM3.3324 0.70359C2.9962 0.382172 3.38412 -0.170151 3.79421 0.0515175L3.80898 0.0598335L27.5052 13.116L21.9072 18.4684L3.3324 0.70359ZM37.072 22.9987L30.4543 26.6433L24.2319 20.6897L30.4543 14.7388L37.072 18.3806C38.8721 19.3754 38.8721 22.004 37.072 22.9987Z" fill="white"/>
</svg>
