<svg width="50" height="50" viewBox="0 0 50 50" fill="none" xmlns="http://www.w3.org/2000/svg">
                        <g clip-path="url(#clip0_373_7414)">
                        <path d="M24.3175 13.229C24.3958 13.2314 24.4745 13.2325 24.5527 13.2325H24.553C27.3296 13.2325 30.3425 11.6671 32.2277 9.2451C34.1736 6.74851 35.0577 3.75363 34.6534 1.02814C34.5611 0.405683 34.0033 -0.0420065 33.3775 0.00313193C30.6411 0.194769 27.5432 1.85863 25.6691 4.14301C23.63 6.62627 22.6958 9.65391 23.1701 12.2419C23.2724 12.8001 23.7503 13.2112 24.3175 13.229ZM27.5317 5.67193C28.694 4.25514 30.5756 3.08475 32.3385 2.61538C32.2547 5.01269 30.9529 6.96151 30.3269 7.76469C29.1099 9.32798 27.2387 10.4529 25.4536 10.747C25.4891 8.36305 27.0099 6.30741 27.5317 5.67193Z" fill="black"/>
                        <path d="M45.3975 36.3569C45.2699 36.0501 45.0211 35.8096 44.7101 35.6924C39.7486 33.8216 38.1948 28.4445 39.6008 24.5345C40.2959 22.5952 41.6634 21.019 43.5553 19.9765C43.8666 19.8049 44.0864 19.5045 44.1556 19.1558C44.2248 18.8071 44.1363 18.4455 43.9142 18.1681C41.3996 15.0299 37.8252 13.1564 34.3524 13.1564C31.921 13.1564 30.2752 13.7806 28.823 14.3313C27.7533 14.7369 26.8297 15.0872 25.7708 15.0872C24.5994 15.0872 23.5312 14.7046 22.294 14.2614C20.8478 13.7434 19.2089 13.1562 17.1604 13.1562C13.2125 13.1562 9.21143 15.5438 6.71709 19.3894C5.79409 20.8198 5.14689 22.5868 4.79269 24.6434C3.79627 30.494 5.48454 37.4656 9.30942 43.2933C11.4785 46.5911 14.2118 49.967 18.0362 49.9996L18.1143 49.9999C19.7073 49.9999 20.7791 49.5212 21.8155 49.0583C22.9107 48.5692 23.9452 48.107 25.819 48.0977L25.8807 48.0975C27.7191 48.0975 28.7209 48.5571 29.7814 49.0437C30.7974 49.5098 31.8481 49.9919 33.4369 49.9919L33.5097 49.9914C37.2576 49.9596 40.096 46.4085 42.3808 42.9355C43.785 40.7845 44.3198 39.6851 45.3845 37.3128C45.5204 37.0097 45.525 36.6637 45.3975 36.3569ZM40.3653 41.615C38.5454 44.3814 36.1192 47.5597 33.4879 47.5822L33.4368 47.5824C32.3742 47.5824 31.6732 47.2606 30.7858 46.8536C29.654 46.3342 28.2454 45.688 25.8803 45.688L25.806 45.6882C23.4255 45.7001 21.9877 46.3423 20.8326 46.8584C19.9168 47.2675 19.1934 47.5906 18.1141 47.5906L18.0582 47.5904C15.3496 47.5671 13.0357 44.5742 11.323 41.9703C7.82435 36.6398 6.27101 30.3138 7.16751 25.0503C7.46597 23.3172 7.99559 21.8522 8.74013 20.6982C10.7935 17.5324 14.02 15.5658 17.1604 15.5658C18.7902 15.5658 20.0975 16.034 21.4815 16.5297C22.8087 17.0052 24.181 17.4968 25.7708 17.4968C27.2713 17.4968 28.4945 17.0328 29.6774 16.5842C30.9975 16.0835 32.3628 15.5658 34.3526 15.5658C36.7201 15.5658 39.1791 16.7058 41.1331 18.6663C39.3658 19.9546 38.0647 21.6792 37.3333 23.7201C35.4262 29.0236 37.8129 34.9038 42.6879 37.4248C41.9633 38.9965 41.4484 39.9554 40.3653 41.615Z" fill="black"/>
                        </g>
                        <defs>
                        <clipPath id="clip0_373_7414">
                        <rect width="50" height="50" fill="white"/>
                        </clipPath>
                        </defs>
                        </svg>