<svg width="36" height="43" viewBox="0 0 36 43" fill="none" xmlns="http://www.w3.org/2000/svg">
<path d="M35.72 31.1556C35.0533 33.2925 34.002 35.4294 32.566 37.5662C30.3607 40.9169 28.164 42.5922 25.9759 42.5922C25.1382 42.5922 23.9415 42.3187 22.3859 41.7716C20.9157 41.2246 19.6251 40.9511 18.5139 40.9511C17.4711 40.9511 16.2573 41.2331 14.8726 41.7973C13.488 42.3785 12.3597 42.6691 11.4878 42.6691C8.8894 42.6691 6.3166 40.4553 3.76945 36.0277C1.25648 31.5659 0 27.2665 0 23.1295C0 19.2319 0.965867 16.0351 2.8976 13.5392C4.82934 11.0776 7.25683 9.84672 10.1801 9.84672C11.4109 9.84672 12.9238 10.1031 14.7188 10.616C16.4967 11.1288 17.6762 11.3853 18.2575 11.3853C19.0267 11.3853 20.249 11.0947 21.9243 10.5134C23.668 9.93219 25.1467 9.64158 26.3605 9.64158C28.3948 9.64158 30.2154 10.1972 31.8223 11.3083C32.7113 11.9238 33.6002 12.7785 34.4892 13.8726C33.1387 15.018 32.1642 16.0266 31.5659 16.8984C30.4547 18.5053 29.8992 20.2747 29.8992 22.2064C29.8992 24.3262 30.4889 26.2323 31.6685 27.9247C32.848 29.6171 34.1985 30.6941 35.72 31.1556ZM26.0784 1.07698C26.0784 2.11978 25.8305 3.28224 25.3348 4.56436C24.8219 5.84649 24.027 7.02604 22.95 8.10303C22.0269 9.02616 21.1038 9.64158 20.1806 9.94929C19.5481 10.1373 18.6592 10.2826 17.5138 10.3852C17.5651 7.83805 18.2318 5.64135 19.5139 3.79509C20.779 1.96592 22.9158 0.700895 25.9246 0C25.9417 0.051285 25.963 0.145307 25.9887 0.282067C26.0143 0.418827 26.0357 0.51285 26.0528 0.564135C26.0528 0.632515 26.0571 0.71799 26.0656 0.82056C26.0741 0.92313 26.0784 1.0086 26.0784 1.07698Z" fill="#DDDDDD"/>
</svg>
