<svg width="51" height="50" viewBox="0 0 51 50" fill="none" xmlns="http://www.w3.org/2000/svg">
<path d="M42.2695 12.1708L42.3747 11.4947C42.5706 10.1281 41.6789 8.83016 41.6789 8.83016C41.1572 8.00399 40.4703 7.29468 39.6612 6.74683C38.7737 6.14357 37.7893 5.69716 36.7508 5.42704C35.6091 5.13146 34.4277 5.01895 33.2508 5.0937C32.0716 5.16662 30.907 5.42287 29.8091 5.85412C28.8011 6.25189 27.8669 6.81597 27.0456 7.52287C26.2923 8.16517 25.6778 8.95411 25.2393 9.84162C24.8256 10.6972 24.6312 11.6422 24.6737 12.5916C24.706 13.1906 24.832 13.7802 25.056 14.3385C25.2799 14.896 25.5857 15.417 25.9633 15.8843C26.3591 16.377 26.8143 16.8166 27.3226 17.1864C27.8435 17.5687 28.9091 18.0364 29.532 18.3093C28.7227 20.2177 26.8299 21.3406 26.8299 21.3406C27.6112 21.4062 28.4008 21.3739 29.1737 21.2468C29.7111 21.1584 30.2391 21.0199 30.7508 20.8333C31.6049 20.4743 32.431 20.0607 33.2289 19.5927L33.6924 19.3322" stroke="#0D0D0D" stroke-width="3" stroke-linejoin="round"/>
<path d="M45.2754 35.8605C45.2969 35.9334 45.308 36.0063 45.3087 36.0792C45.3009 36.764 45.1939 37.444 44.991 38.098C44.2097 40.6376 42.1025 43.3594 39.6118 44.0876C33.3295 45.9594 26.7129 44.0428 20.8618 41.1053C16.0254 38.688 12.0917 34.7832 9.63892 29.9646C6.68892 24.1376 4.76392 17.5542 6.64412 11.3042C7.38892 8.83027 10.1358 6.73027 12.6785 5.95319L14.717 5.41569C14.8799 5.37365 15.0527 5.39473 15.2006 5.47471C15.3486 5.55469 15.4609 5.68765 15.515 5.84694L17.1264 10.5636C17.9493 12.8581 18.7698 15.1528 19.5879 17.448L19.6535 17.6271C19.7093 17.783 19.7141 17.9525 19.6673 18.1113C19.6205 18.27 19.5245 18.4098 19.3931 18.5105C18.5932 19.1157 17.6993 19.5854 16.7472 19.9011C15.6118 20.2511 14.4452 20.4751 13.2608 20.573C13.1487 20.5846 13.0405 20.6211 12.9442 20.6796C12.8479 20.7382 12.7658 20.8175 12.7039 20.9117C12.6419 21.0059 12.6017 21.1128 12.5862 21.2244C12.5706 21.3361 12.5801 21.4498 12.6139 21.5574C13.8436 25.4648 15.9942 29.0194 18.8847 31.9219C21.8092 34.8093 25.3802 36.9573 29.3014 38.1876C29.4086 38.2204 29.5217 38.2292 29.6326 38.2133C29.7436 38.1974 29.8496 38.1571 29.9432 38.0954C30.0368 38.0337 30.1155 37.952 30.1738 37.8563C30.2322 37.7606 30.2686 37.6532 30.2806 37.5417C30.381 36.3571 30.6119 35.1871 30.9691 34.0532C31.2867 33.1073 31.7583 32.2204 32.365 31.4282C32.4657 31.2934 32.6077 31.1951 32.7693 31.1481C32.9309 31.1011 33.1034 31.108 33.2608 31.1678L33.4347 31.2303L40.3483 33.6792C41.9879 34.2615 43.3879 34.8469 45.0358 35.4334C45.1295 35.4646 45.2233 35.7146 45.2754 35.8605Z" stroke="#0D0D0D" stroke-width="3" stroke-linecap="round"/>
<path d="M43.0637 12.3733L42.7408 12.2795C41.8544 12.0493 40.9371 11.9614 40.0231 12.0191C39.1039 12.0764 38.1993 12.2767 37.3419 12.6129C36.5583 12.9217 35.8333 13.362 35.1981 13.915C34.6109 14.4198 34.1343 15.0403 33.7981 15.7379C33.4718 16.3998 33.32 17.134 33.357 17.8711C33.394 18.6081 33.6186 19.3234 34.0096 19.9493C34.4123 20.5953 34.9443 21.1511 35.5721 21.5816C36.2623 22.0487 37.0276 22.394 37.8346 22.6025C38.722 22.8349 39.641 22.9228 40.5564 22.8629H40.646C41.3298 23.3319 42.0876 23.6826 42.8877 23.9004C43.3978 24.0391 43.922 24.1195 44.4502 24.14C45.0565 24.1654 45.6636 24.115 46.2575 23.99C46.2575 23.99 44.3616 22.892 44.3043 21.7566C44.7554 21.4962 45.1752 21.1827 45.5575 20.8295C45.9155 20.4943 46.2298 20.1153 46.4929 19.7014C46.7461 19.3048 46.9395 18.8731 47.0669 18.4202C47.2298 17.8412 47.2702 17.2345 47.1854 16.639C47.1005 16.0435 46.8924 15.4723 46.5741 14.9618C46.3135 14.5309 45.9918 14.14 45.6189 13.8014C44.8501 13.1924 43.9866 12.7139 43.0627 12.3847" stroke="#E60000" stroke-width="3" stroke-linecap="round" stroke-linejoin="round"/>
</svg>
