<svg width="51" height="50" viewBox="0 0 51 50" fill="none" xmlns="http://www.w3.org/2000/svg">
<path d="M30.6815 32.752C31.0927 32.7988 31.4704 33.0013 31.737 33.3178C32.0036 33.6344 32.139 34.041 32.1152 34.4542C32.0915 34.8674 31.9105 35.2558 31.6094 35.5398C31.3083 35.8237 30.91 35.9816 30.4961 35.9811" stroke="#0D0D0D" stroke-width="3" stroke-linecap="round" stroke-linejoin="round"/>
<path d="M30.819 32.7723C30.819 32.7723 23.4544 31.3171 21.6263 30.9265C20.5846 30.7025 19.3971 30.3556 18.5013 30.0775C16.5 29.4348 14.3259 29.6077 12.4513 30.5587C10.5555 31.5431 7.87943 34.3744 7.10547 38.3327M18.0065 37.239C18.0065 37.239 19.4263 36.0119 20.5086 35.9608C21.8628 35.8952 30.269 35.9817 30.5169 35.9837" stroke="#0D0D0D" stroke-width="3" stroke-linecap="round" stroke-linejoin="round"/>
<path d="M32.0104 33.7726L42.4604 29.0851C42.8977 28.8829 43.3934 28.8462 43.8557 28.9818C44.3179 29.1175 44.7153 29.4162 44.974 29.8226C45.122 30.056 45.2196 30.3178 45.2603 30.5912C45.3011 30.8646 45.2841 31.1435 45.2105 31.4099C45.1369 31.6764 45.0083 31.9244 44.833 32.1381C44.6577 32.3518 44.4396 32.5265 44.1927 32.6507C39.5604 34.9945 26.625 41.7653 25.8146 42.1122L25.5885 42.2028C24.5469 42.5955 23.5052 42.6455 22.349 42.6403H11.4375" stroke="#0D0D0D" stroke-width="3" stroke-linecap="round" stroke-linejoin="round"/>
<path d="M40.7331 29.8747C40.7365 29.4298 40.6303 28.9908 40.4237 28.5966C40.165 28.1902 39.7677 27.8915 39.3054 27.7558C38.8432 27.6202 38.3474 27.6569 37.9102 27.8591L28.3008 32.2862M34.4654 29.4393C34.4674 28.9977 34.3612 28.5612 34.1549 28.1685C33.8961 27.7623 33.4987 27.4638 33.0365 27.3283C32.5742 27.1929 32.0785 27.2297 31.6414 27.432L23.2904 31.2706M5.70703 36.9372L13.4779 44.6945" stroke="#0D0D0D" stroke-width="3" stroke-linecap="round" stroke-linejoin="round"/>
<path d="M32.6628 21.9837C31.7721 16.8139 28.8263 14.1504 25.5461 14.1504C22.2659 14.1504 19.2336 16.8118 18.3398 21.9837" stroke="#E60000" stroke-width="3" stroke-linecap="round" stroke-linejoin="round"/>
<path d="M25.4987 5.33789H29.8529V9.69206C29.8529 10.5532 29.5975 11.3951 29.1191 12.1111C28.6406 12.8271 27.9606 13.3852 27.165 13.7148C26.3693 14.0443 25.4939 14.1306 24.6492 13.9626C23.8046 13.7946 23.0288 13.3799 22.4198 12.7709C21.8109 12.162 21.3962 11.3861 21.2282 10.5415C21.0602 9.69689 21.1464 8.82141 21.476 8.02579C21.8055 7.23017 22.3636 6.55014 23.0797 6.0717C23.7957 5.59326 24.6375 5.33789 25.4987 5.33789Z" stroke="#E60000" stroke-width="3" stroke-linecap="round"/>
</svg>
