<svg width="28" height="28" viewBox="0 0 28 28" fill="none" xmlns="http://www.w3.org/2000/svg">
                            <path d="M4 0C1.79375 0 0 1.79375 0 4V24C0 26.2062 1.79375 28 4 28H10.1375V18.8875H6.8375V14H10.1375V11.8938C10.1375 6.45 12.6 3.925 17.95 3.925C18.9625 3.925 20.7125 4.125 21.4312 4.325V8.75C21.0562 8.7125 20.4 8.6875 19.5812 8.6875C16.9562 8.6875 15.9438 9.68125 15.9438 12.2625V14H21.1688L20.2687 18.8875H15.9375V28H24C26.2062 28 28 26.2062 28 24V4C28 1.79375 26.2062 0 24 0H4Z" fill="white" />
                        </svg>