<svg width="50" height="50" viewBox="0 0 50 50" fill="none" xmlns="http://www.w3.org/2000/svg">
<mask id="mask0_373_3223" style="mask-type:luminance" maskUnits="userSpaceOnUse" x="-1" y="0" width="51" height="50">
<path d="M-0.625 0H49.375V50H-0.625V0Z" fill="white"/>
</mask>
<g mask="url(#mask0_373_3223)">
<path d="M30.1939 32.3907C30.1939 32.3907 36.0376 32.6147 38.3168 31.6095C39.9064 30.8901 41.279 29.7657 42.2973 28.3488C43.3156 26.932 43.9438 25.2725 44.1189 23.5366C44.4605 20.1272 42.9053 16.3824 39.9678 14.5699C38.5074 13.672 36.8012 13.3074 35.0949 13.1584C34.1238 13.1315 33.152 13.1726 32.1866 13.2814C31.5117 11.1288 30.212 9.22549 28.4527 7.81342C26.6934 6.40135 24.554 5.54427 22.3064 5.35115C20.5554 5.22462 18.7994 5.51505 17.1824 6.1986C15.5654 6.88215 14.1336 7.93934 13.0043 9.28344C11.8986 10.6053 11.1053 12.1594 10.6835 13.8303C10.572 14.273 10.3501 15.5074 10.3501 15.5074C9.21086 15.8742 8.15897 16.4709 7.2595 17.2605C4.52304 19.7084 3.85638 23.8907 5.38763 27.1824C6.77825 30.172 9.76471 32.3907 13.0876 32.3907H18.5564" stroke="#0D0D0D" stroke-width="3" stroke-linecap="round" stroke-linejoin="round"/>
<path d="M24.3743 20.0889V44.8732M24.3743 20.0889L17.6035 27.3805M24.3743 20.0889L31.1452 27.3805" stroke="#E60000" stroke-width="3" stroke-linecap="round" stroke-linejoin="round"/>
</g>
</svg>
