<svg width="28" height="28" viewBox="0 0 28 28" fill="none" xmlns="http://www.w3.org/2000/svg">
                            <path d="M12.15 11.2312C11.786 11.4746 11.4735 11.7873 11.2303 12.1514C10.9871 12.5155 10.8181 12.924 10.7328 13.3535C10.5605 14.2208 10.7398 15.1211 11.2312 15.8563C11.7227 16.5914 12.4861 17.1012 13.3535 17.2735C14.2208 17.4458 15.1211 17.2665 15.8562 16.775C16.5914 16.2835 17.1012 15.5201 17.2735 14.6528C17.4458 13.7854 17.2665 12.8851 16.775 12.15C16.2835 11.4149 15.5201 10.9051 14.6528 10.7328C13.7854 10.5605 12.8851 10.7398 12.15 11.2312ZM21.0438 6.95625C20.7188 6.63125 20.325 6.375 19.8937 6.20625C18.7625 5.7625 16.2938 5.78125 14.7 5.8C14.4437 5.8 14.2063 5.80625 14 5.80625C13.7937 5.80625 13.55 5.80625 13.2875 5.8C11.6938 5.78125 9.2375 5.75625 8.10625 6.20625C7.675 6.375 7.2875 6.63125 6.95625 6.95625C6.625 7.28125 6.375 7.675 6.20625 8.10625C5.7625 9.2375 5.7875 11.7125 5.8 13.3062C5.8 13.5625 5.80625 13.8 5.80625 14C5.80625 14.2 5.80625 14.4375 5.8 14.6938C5.7875 16.2875 5.7625 18.7625 6.20625 19.8937C6.375 20.325 6.63125 20.7125 6.95625 21.0438C7.28125 21.375 7.675 21.625 8.10625 21.7938C9.2375 22.2375 11.7063 22.2188 13.3 22.2C13.5563 22.2 13.7937 22.1938 14 22.1938C14.2063 22.1938 14.45 22.1938 14.7125 22.2C16.3062 22.2188 18.7625 22.2438 19.8937 21.7938C20.325 21.625 20.7125 21.3688 21.0438 21.0438C21.375 20.7188 21.625 20.325 21.7938 19.8937C22.2438 18.7687 22.2188 16.3062 22.2 14.7062C22.2 14.4437 22.1938 14.2 22.1938 13.9937C22.1938 13.7875 22.1938 13.55 22.2 13.2812C22.2188 11.6875 22.2438 9.225 21.7938 8.09375C21.625 7.6625 21.3688 7.275 21.0438 6.94375V6.95625ZM16.85 9.7375C17.9805 10.4934 18.7644 11.6674 19.0293 13.0012C19.2942 14.3351 19.0184 15.7195 18.2625 16.85C17.8882 17.4098 17.4074 17.8903 16.8474 18.2642C16.2874 18.6382 15.6592 18.8981 14.9988 19.0293C13.6649 19.2942 12.2805 19.0184 11.15 18.2625C10.0195 17.5075 9.23527 16.3343 8.96979 15.001C8.70431 13.6677 8.97934 12.2836 9.73438 11.1531C10.4894 10.0226 11.6626 9.23839 12.9959 8.97291C14.3291 8.70743 15.7133 8.98246 16.8438 9.7375H16.85ZM18.675 9.65625C18.4812 9.525 18.325 9.3375 18.2313 9.11875C18.1375 8.9 18.1187 8.6625 18.1625 8.425C18.2063 8.1875 18.325 7.98125 18.4875 7.8125C18.65 7.64375 18.8687 7.53125 19.1 7.4875C19.3313 7.44375 19.575 7.4625 19.7938 7.55625C20.0125 7.65 20.2 7.8 20.3312 7.99375C20.4625 8.1875 20.5312 8.41875 20.5312 8.65625C20.5312 8.8125 20.5 8.96875 20.4438 9.1125C20.3875 9.25625 20.2938 9.3875 20.1875 9.5C20.0812 9.6125 19.9437 9.7 19.8 9.7625C19.6562 9.825 19.5 9.85625 19.3438 9.85625C19.1063 9.85625 18.875 9.7875 18.6812 9.65625H18.675ZM28 4C28 1.79375 26.2062 0 24 0H4C1.79375 0 0 1.79375 0 4V24C0 26.2062 1.79375 28 4 28H24C26.2062 28 28 26.2062 28 24V4ZM22.3125 22.3125C21.1437 23.4813 19.725 23.85 18.125 23.9312C16.475 24.025 11.525 24.025 9.875 23.9312C8.275 23.85 6.85625 23.4813 5.6875 22.3125C4.51875 21.1437 4.15 19.725 4.075 18.125C3.98125 16.475 3.98125 11.525 4.075 9.875C4.15625 8.275 4.51875 6.85625 5.6875 5.6875C6.85625 4.51875 8.28125 4.15 9.875 4.075C11.525 3.98125 16.475 3.98125 18.125 4.075C19.725 4.15625 21.1437 4.51875 22.3125 5.6875C23.4813 6.85625 23.85 8.275 23.925 9.875C24.0187 11.5188 24.0187 16.4625 23.925 18.1187C23.8438 19.7188 23.4813 21.1375 22.3125 22.3062V22.3125Z" fill="white" />
                        </svg>