<svg width="148" height="148" viewBox="0 0 148 148" fill="none" xmlns="http://www.w3.org/2000/svg">
<g clip-path="url(#clip0_373_5161)">
<path d="M92.5 53.1875H87.875V64.75H92.5V53.1875Z" fill="black"/>
<path d="M101.75 53.1875H97.125V64.75H101.75V53.1875Z" fill="black"/>
<path d="M92.5 69.375H87.875V74H92.5V69.375Z" fill="black"/>
<path d="M101.75 69.375H97.125V74H101.75V69.375Z" fill="black"/>
<path d="M76.3125 78.625H71.6875V83.25H76.3125V78.625Z" fill="black"/>
<path d="M64.75 124.875H60.125V129.5H64.75V124.875Z" fill="black"/>
<path d="M101.75 78.625H97.125V83.25H101.75V78.625Z" fill="black"/>
<path d="M92.5 87.875H87.875V92.5H92.5V87.875Z" fill="black"/>
<path d="M101.75 87.875H97.125V92.5H101.75V87.875Z" fill="black"/>
<path d="M4.625 4.625H11.5625V0H2.3125C1.036 0 0 1.036 0 2.3125V11.5625H4.625V4.625Z" fill="black"/>
<path d="M145.688 0H136.438V4.625H143.375V11.5625H148V2.3125C148 1.036 146.964 0 145.688 0Z" fill="black"/>
<path d="M4.625 136.438H0V145.688C0 146.964 1.036 148 2.3125 148H11.5625V143.375H4.625V136.438Z" fill="black"/>
<path d="M143.375 143.375H136.438V148H145.688C146.964 148 148 146.964 148 145.688V136.438H143.375V143.375Z" fill="black"/>
<path d="M9.25 11.5625V39.3125C9.25 40.589 10.286 41.625 11.5625 41.625H39.3125C40.589 41.625 41.625 40.589 41.625 39.3125V11.5625C41.625 10.286 40.589 9.25 39.3125 9.25H11.5625C10.286 9.25 9.25 10.286 9.25 11.5625ZM13.875 13.875H37V37H13.875V13.875Z" fill="black"/>
<path d="M30.0625 18.5H20.8125C19.536 18.5 18.5 19.536 18.5 20.8125V30.0625C18.5 31.339 19.536 32.375 20.8125 32.375H30.0625C31.339 32.375 32.375 31.339 32.375 30.0625V20.8125C32.375 19.536 31.339 18.5 30.0625 18.5ZM27.75 27.75H23.125V23.125H27.75V27.75Z" fill="black"/>
<path d="M108.688 41.625H136.438C137.714 41.625 138.75 40.589 138.75 39.3125V11.5625C138.75 10.286 137.714 9.25 136.438 9.25H108.688C107.411 9.25 106.375 10.286 106.375 11.5625V39.3125C106.375 40.589 107.411 41.625 108.688 41.625ZM111 13.875H134.125V37H111V13.875Z" fill="black"/>
<path d="M127.188 18.5H117.938C116.661 18.5 115.625 19.536 115.625 20.8125V30.0625C115.625 31.339 116.661 32.375 117.938 32.375H127.188C128.464 32.375 129.5 31.339 129.5 30.0625V20.8125C129.5 19.536 128.464 18.5 127.188 18.5ZM124.875 27.75H120.25V23.125H124.875V27.75Z" fill="black"/>
<path d="M39.3125 106.375H11.5625C10.286 106.375 9.25 107.411 9.25 108.688V136.438C9.25 137.714 10.286 138.75 11.5625 138.75H39.3125C40.589 138.75 41.625 137.714 41.625 136.438V108.688C41.625 107.411 40.589 106.375 39.3125 106.375ZM37 134.125H13.875V111H37V134.125Z" fill="black"/>
<path d="M20.8125 129.5H30.0625C31.339 129.5 32.375 128.464 32.375 127.188V117.938C32.375 116.661 31.339 115.625 30.0625 115.625H20.8125C19.536 115.625 18.5 116.661 18.5 117.938V127.188C18.5 128.464 19.536 129.5 20.8125 129.5ZM23.125 120.25H27.75V124.875H23.125V120.25Z" fill="black"/>
<path d="M101.75 43.9375H85.5625V16.1875H80.9375V46.25C80.9375 47.5265 81.9735 48.5625 83.25 48.5625H101.75V43.9375Z" fill="black"/>
<path d="M67.0625 27.75H50.875V32.375H67.0625V27.75Z" fill="black"/>
<path d="M76.3125 18.5H60.125V23.125H76.3125V18.5Z" fill="black"/>
<path d="M13.875 43.9375H9.25V64.75H13.875V43.9375Z" fill="black"/>
<path d="M41.625 57.8125H18.5V62.4375H39.3125V71.6875H43.9375V60.125C43.9375 58.8485 42.9015 57.8125 41.625 57.8125Z" fill="black"/>
<path d="M25.4375 46.25H20.8125V50.875H25.4375V46.25Z" fill="black"/>
<path d="M53.1875 41.625H48.5625V60.125H53.1875V41.625Z" fill="black"/>
<path d="M69.375 64.75H48.5625V69.375H69.375V64.75Z" fill="black"/>
<path d="M141.062 67.0625H136.438V90.1875H129.5V94.8125H138.75C140.026 94.8125 141.062 93.7765 141.062 92.5V67.0625Z" fill="black"/>
<path d="M64.75 41.625H60.125V46.25H64.75V41.625Z" fill="black"/>
<path d="M13.875 76.3125H9.25V94.8125H13.875V76.3125Z" fill="black"/>
<path d="M30.0625 97.125H9.25V101.75H30.0625V97.125Z" fill="black"/>
<path d="M115.625 64.75H120.25V55.5C120.25 54.2235 119.214 53.1875 117.938 53.1875H106.375V57.8125H115.625V64.75Z" fill="black"/>
<path d="M25.4375 76.3125H20.8125V80.9375H25.4375V76.3125Z" fill="black"/>
<path d="M50.875 74H46.25V92.5H50.875V74Z" fill="black"/>
<path d="M67.0625 97.125H46.25V101.75H67.0625V97.125Z" fill="black"/>
<path d="M39.3125 87.875H18.5V92.5H39.3125V87.875Z" fill="black"/>
<path d="M53.1875 120.25H48.5625V129.5H53.1875V120.25Z" fill="black"/>
<path d="M67.0625 111H46.25V115.625H67.0625V111Z" fill="black"/>
<path d="M83.25 101.75V90.1875C83.25 88.911 82.214 87.875 80.9375 87.875H57.8125V92.5H78.625V101.75H83.25Z" fill="black"/>
<path d="M64.75 74H60.125V78.625H64.75V74Z" fill="black"/>
<path d="M39.3125 78.625H34.6875V83.25H39.3125V78.625Z" fill="black"/>
<path d="M141.062 122.562H136.438V138.75H141.062V122.562Z" fill="black"/>
<path d="M131.812 134.125H124.875V138.75H131.812V134.125Z" fill="black"/>
<path d="M129.5 120.25H124.875V129.5H129.5V120.25Z" fill="black"/>
<path d="M141.062 101.75C141.062 100.474 140.027 99.4375 138.75 99.4375H113.312V104.062H136.438V117.938H141.062V101.75Z" fill="black"/>
<path d="M111 129.5V117.938C111 116.661 109.964 115.625 108.688 115.625H83.25V120.25H106.375V129.5H111Z" fill="black"/>
<path d="M131.812 108.688H115.625V113.312H131.812V108.688Z" fill="black"/>
<path d="M62.4375 134.125H46.25V138.75H62.4375V134.125Z" fill="black"/>
<path d="M74 117.938H69.375V138.75H74V117.938Z" fill="black"/>
<path d="M83.25 106.375H74V111H83.25V106.375Z" fill="black"/>
<path d="M108.688 83.25H120.25V78.625H111V64.75H106.375V80.9375C106.375 82.214 107.411 83.25 108.688 83.25Z" fill="black"/>
<path d="M127.188 69.375H115.625V74H127.188V69.375Z" fill="black"/>
<path d="M131.812 46.25H124.875V50.875H131.812V46.25Z" fill="black"/>
<path d="M141.062 46.25H136.438V57.8125H141.062V46.25Z" fill="black"/>
<path d="M129.5 57.8125H124.875V62.4375H129.5V57.8125Z" fill="black"/>
<path d="M90.1875 39.3125H99.4375C100.714 39.3125 101.75 38.2765 101.75 37V6.9375H97.125V34.6875H90.1875V39.3125Z" fill="black"/>
<path d="M55.5 11.5625H90.1875V6.9375H53.1875C51.911 6.9375 50.875 7.9735 50.875 9.25V20.8125H55.5V11.5625Z" fill="black"/>
<path d="M57.8125 55.5H74C75.2765 55.5 76.3125 54.464 76.3125 53.1875V34.6875H71.6875V50.875H57.8125V55.5Z" fill="black"/>
<path d="M83.25 53.1875H78.625V62.4375H83.25V53.1875Z" fill="black"/>
<path d="M99.4375 124.875H83.25V129.5H99.4375V124.875Z" fill="black"/>
<path d="M104.062 134.125H83.25V138.75H104.062V134.125Z" fill="black"/>
<path d="M115.625 134.125H111V138.75H117.938C119.214 138.75 120.25 137.714 120.25 136.438V117.938H115.625V134.125Z" fill="black"/>
<path d="M41.625 97.125H37V101.75H41.625V97.125Z" fill="black"/>
<path d="M99.4375 97.125H90.1875V101.75H99.4375V97.125Z" fill="black"/>
<path d="M111 87.875H106.375V94.8125H111V87.875Z" fill="black"/>
<path d="M108.688 99.4375H104.062V104.062H108.688V99.4375Z" fill="black"/>
<path d="M97.125 106.375H90.1875V111H97.125V106.375Z" fill="black"/>
<path d="M120.25 87.875H115.625V92.5H120.25V87.875Z" fill="black"/>
<path d="M131.812 78.625H124.875V83.25H131.812V78.625Z" fill="black"/>
<path d="M92.5 78.625H80.9375V83.25H92.5V78.625Z" fill="black"/>
<path d="M83.25 67.0625H78.625V74H83.25V67.0625Z" fill="black"/>
</g>
<defs>
<clipPath id="clip0_373_5161">
<rect width="148" height="148" fill="white"/>
</clipPath>
</defs>
</svg>
