<svg width="50" height="50" viewBox="0 0 50 50" fill="none" xmlns="http://www.w3.org/2000/svg">
<path d="M23.4497 18.8594L42.0081 37.4167C42.2994 37.707 42.5306 38.052 42.6883 38.4318C42.846 38.8117 42.9272 39.2189 42.9272 39.6302C42.9272 40.0415 42.846 40.4488 42.6883 40.8286C42.5306 41.2085 42.2994 41.5534 42.0081 41.8437C41.7177 42.1351 41.3728 42.3662 40.9929 42.524C40.6131 42.6817 40.2058 42.7629 39.7945 42.7629C39.3832 42.7629 38.976 42.6817 38.5961 42.524C38.2163 42.3662 37.8713 42.1351 37.581 41.8437L19.031 23.2792M15.6091 29.9708L8.16327 37.4167C7.87194 37.707 7.64078 38.052 7.48306 38.4318C7.32533 38.8117 7.24414 39.2189 7.24414 39.6302C7.24414 40.0415 7.32533 40.4488 7.48306 40.8286C7.64078 41.2085 7.87194 41.5534 8.16327 41.8437C8.45359 42.1351 8.79857 42.3662 9.17842 42.524C9.55827 42.6817 9.96552 42.7629 10.3768 42.7629C10.7881 42.7629 11.1954 42.6817 11.5752 42.524C11.9551 42.3662 12.3 42.1351 12.5904 41.8437L20.0362 34.3979" stroke="#0D0D0D" stroke-width="3" stroke-miterlimit="10" stroke-linecap="round"/>
<path d="M14.0799 40.339L19.981 34.438C20.2723 34.1477 20.5035 33.8027 20.6612 33.4229C20.8189 33.043 20.9001 32.6358 20.9001 32.2245C20.9001 31.8132 20.8189 31.4059 20.6612 31.0261C20.5035 30.6462 20.2723 30.3012 19.981 30.0109C19.6907 29.7196 19.3457 29.4884 18.9658 29.3307C18.586 29.173 18.1787 29.0918 17.7674 29.0918C17.3562 29.0918 16.9489 29.173 16.5691 29.3307C16.1892 29.4884 15.8442 29.7196 15.5539 30.0109L9.66016 35.9203" stroke="#0D0D0D" stroke-width="3" stroke-miterlimit="10" stroke-linecap="round"/>
<path d="M8.09947 12.3464C7.4538 13.8733 7.27819 15.558 7.5951 17.1852C7.91201 18.8124 8.70705 20.3081 9.87853 21.481C11.05 22.654 12.5447 23.4509 14.1715 23.7698C15.7983 24.0887 17.4833 23.9152 19.0109 23.2714M23.438 18.8548C24.0884 17.3268 24.2674 15.6394 23.9521 14.009C23.6368 12.3786 22.8416 10.8796 21.6685 9.70421C20.4954 8.52887 18.9979 7.73081 17.3681 7.41242C15.7383 7.09403 14.0505 7.26983 12.5213 7.91727" stroke="#0D0D0D" stroke-width="3" stroke-miterlimit="10"/>
<path d="M27.3898 22.7975L41.9742 8.20898M20.1367 30.0454L22.9732 27.2121" stroke="#0D0D0D" stroke-width="3" stroke-miterlimit="10" stroke-linecap="round"/>
<path d="M12.4999 7.87012L16.5467 12.0837C16.7336 12.2775 16.8381 12.5363 16.8384 12.8055V15.6253C16.8384 15.9016 16.7287 16.1665 16.5333 16.3619C16.338 16.5572 16.073 16.667 15.7967 16.667H12.8728C12.7358 16.6671 12.6002 16.6402 12.4736 16.5878C12.3471 16.5355 12.2321 16.4586 12.1353 16.3618L8.11133 12.3285" stroke="#E60000" stroke-width="3" stroke-miterlimit="10" stroke-linecap="round"/>
</svg>
