<svg width="60" height="60" viewBox="0 0 60 60" fill="none" xmlns="http://www.w3.org/2000/svg">
                            <g clip-path="url(#clip0_373_7372)">
                                <path d="M30.001 60.0019C46.57 60.0019 60.0019 46.57 60.0019 30.001C60.0019 13.4319 46.57 0 30.001 0C13.4319 0 0 13.4319 0 30.001C0 46.57 13.4319 60.0019 30.001 60.0019Z" fill="#E60000" />
                                <path d="M30.235 46.6267C22.0435 46.6536 13.5191 39.6628 13.4825 28.4348C13.4594 21.0091 17.4638 13.8548 22.5842 9.62144C27.5873 5.48623 34.4203 2.83269 40.626 2.81152C41.4245 2.81152 42.2597 2.87502 42.7715 3.04821C37.3451 4.17389 33.0271 9.22312 33.0464 14.9516C33.0459 15.114 33.0581 15.2761 33.0829 15.4365C42.1615 17.6475 46.2833 23.1335 46.3083 30.7054C46.3333 38.2774 40.3489 46.592 30.235 46.6267Z" fill="white" />
                            </g>
                            <defs>
                                <clipPath id="clip0_373_7372">
                                    <rect width="60" height="60" fill="white" />
                                </clipPath>
                            </defs>
                        </svg>


