 <svg width="28" height="28" viewBox="0 0 28 28" fill="none" xmlns="http://www.w3.org/2000/svg">
                            <path d="M17.625 14.0125L11.675 10.6313V17.3937L17.625 14.0125ZM24 0H4C1.79375 0 0 1.79375 0 4V24C0 26.2062 1.79375 28 4 28H24C26.2062 28 28 26.2062 28 24V4C28 1.79375 26.2062 0 24 0ZM24.9 8.50625C25.375 10.2938 25.375 14.0187 25.375 14.0187C25.375 14.0187 25.375 17.7437 24.9 19.525C24.6375 20.5125 23.8688 21.2562 22.8875 21.5187C21.1188 22 14 22 14 22C14 22 6.88125 22 5.1125 21.525C4.13125 21.2625 3.3625 20.5187 3.1 19.5312C2.625 17.7437 2.625 14.0187 2.625 14.0187C2.625 14.0187 2.625 10.2875 3.1 8.50625C3.3625 7.51875 4.13125 6.74375 5.1125 6.48125C6.88125 6 14 6 14 6C14 6 21.1188 6 22.8875 6.48125C23.8688 6.74375 24.6375 7.51875 24.9 8.50625Z" fill="white" />
                        </svg>